# xmcd
#
# Track frame offsets:
#       150
#       14354
#       26500
#       40945
#       57557
#       73614
#       91862
#       106693
#       128111
#       141489
#       160424
#       177969
#       196675
#       209260
#       226157
#
# Disc length: 3294 seconds
#
# Revision: 0
# Processed by: cddbd v1.5.1PL0 Copyright (c) Steve Scherf et al.
# Submitted via: WhereIsIt 3.26
#
DISCID=c80cdc0f
DTITLE=Banket - Gold
DYEAR=1900
DGENRE=
TTITLE0=Po schodoch
TTITLE1=Praveky manekyn
TTITLE2=Slon v porcelane
TTITLE3=Nespoznany
TTITLE4=Preco vy ludia XX.storocia
TTITLE5=Nezavadzaj
TTITLE6=Slovenske tango
TTITLE7=Niet cim ta klamat
TTITLE8=Salieri
TTITLE9=Espresso ton
TTITLE10=Aj ty
TTITLE11=Sluzit ti chcem
TTITLE12=Plesovy mars
TTITLE13=Co s tym
TTITLE14=Tlakova niz
EXTD=
EXTT0=
EXTT1=
EXTT2=
EXTT3=
EXTT4=
EXTT5=
EXTT6=
EXTT7=
EXTT8=
EXTT9=
EXTT10=
EXTT11=
EXTT12=
EXTT13=
EXTT14=
PLAYORDER=
